<?xml version="1.0" encoding="UTF-8"?>
<svg xmlns="http://www.w3.org/2000/svg" version="1.1" viewBox="0 0 1301.6 556.3">
  <defs>
    <style>
      .cls-1 {
        fill: #69b9f9;
      }

      .cls-2 {
        font-family: Octarine-Light, Octarine;
        font-weight: 300;
      }

      .cls-3, .cls-4 {
        fill: #fff;
      }

      .cls-5 {
        font-size: 78px;
      }

      .cls-6 {
        font-size: 210.7px;
      }

      .cls-4 {
        opacity: .2;
      }

      .cls-7 {
        fill: #8fc1f2;
      }
    </style>
  </defs>
  <!-- Generator: Adobe Illustrator 28.7.1, SVG Export Plug-In . SVG Version: 1.2.0 Build 142)  -->
  <g>
    <g id="Capa_1">
      <rect x="-383.9" y="624.8" width="1080" height="1080"/>
      <rect x="1054" y="683.2" width="1301.6" height="556.3"/>
      <circle class="cls-4" cx="147.1" cy="1178.6" r="356.9"/>
      <text class="cls-2" transform="translate(294.4 -197.3)"><tspan class="cls-6"><tspan x="0" y="0">Ismael</tspan></tspan><tspan class="cls-5"><tspan x="10.8" y="93.6">Blandón Moreno</tspan></tspan></text>
      <g>
        <g>
          <path class="cls-3" d="M172.8,389.2c16.2,0,28,9.8,28,23.5s-6.5,17.2-15.7,19.5c10.7,2.4,18.3,11.6,18.3,22.7s-13.2,26.1-31.1,26.1h-45.9v-91.9h46.4ZM135.1,428.3h36.7c11.8,0,20.1-6.4,20.1-15.5s-8.4-15.7-20.1-15.7h-36.7v31.2ZM135.1,436.3v37h36.1c13.6,0,23.4-7.8,23.4-18.7s-9.8-18.3-23.4-18.3h-36.1Z"/>
          <path class="cls-3" d="M220.5,385.3h8.1v95.8h-8.1v-95.8Z"/>
          <path class="cls-3" d="M314.3,448.1v32.9h-7.7v-12.5c-5.2,9.4-15,15.2-27.2,15.2-20.5,0-34.8-14.5-34.8-35.5s14.4-35.4,34.8-35.4,34.9,14.8,34.9,35.4ZM252.7,448.1c0,16.3,11.1,28.1,26.7,28.1s26.8-11.8,26.8-28.1-11.2-28-26.8-28-26.7,11.8-26.7,28Z"/>
          <path class="cls-3" d="M391,442.1v38.9h-8.1v-37.6c0-13.7-8.5-23.3-21.2-23.3s-21.3,9-21.3,22.1v38.8h-8.1v-65.7h8.1v9.9c4.2-7.8,12.2-12.5,22.1-12.5,17,0,28.5,12,28.5,29.4Z"/>
          <path class="cls-3" d="M475.1,385.3v63.5c0,20.3-14.4,34.9-34.5,34.9s-34.9-14.9-34.9-35.5,14.5-35.4,34.8-35.4,21.3,5.7,26.5,14.8v-42.2h8.1ZM440.5,476.2c15.5,0,26.7-11.8,26.8-28.1,0-16.2-11.2-28-26.8-28s-26.8,11.8-26.7,28c0,16.3,11.2,28.1,26.7,28.1Z"/>
          <path class="cls-3" d="M524.8,483.7c-20.4,0-34.8-14.8-34.8-35.5s14.4-35.4,34.8-35.4,34.9,14.8,34.9,35.4-14.5,35.5-34.9,35.5ZM524.8,420.2c-15.5,0-26.7,11.8-26.7,28s11.1,28.1,26.7,28.1,26.8-11.8,26.8-28.1-11.2-28-26.8-28ZM521.1,403.3l15.7-18h5.6v3.4l-16.3,17.9h-5v-3.3Z"/>
          <path class="cls-3" d="M634.5,442.1v38.9h-8.1v-37.6c0-13.7-8.5-23.3-21.2-23.3s-21.3,9-21.3,22.1v38.8h-8.1v-65.7h8.1v9.9c4.2-7.8,12.2-12.5,22.1-12.5,17,0,28.5,12,28.5,29.4Z"/>
          <path class="cls-3" d="M705.2,389.2l39.5,80.2,39.5-80.2h11.8v91.9h-8.6v-79.3l-38.9,79.3h-7.2l-38.9-79.1v79.1h-8.5v-91.9h11.5Z"/>
          <path class="cls-3" d="M848,483.7c-20.4,0-34.8-14.8-34.8-35.5s14.4-35.4,34.8-35.4,34.9,14.8,34.9,35.4-14.5,35.5-34.9,35.5ZM848,420.2c-15.5,0-26.7,11.8-26.7,28s11.1,28.1,26.7,28.1,26.8-11.8,26.8-28.1-11.2-28-26.8-28Z"/>
          <path class="cls-3" d="M940.3,418v7.1h-4.4c-1.8-2.9-6.7-4.8-11.5-4.8-10.3,0-17.1,9.7-17.1,23.6v37.2h-8.1v-65.7h7.8v10.1c3.7-7.8,10.2-12.5,18.6-12.5s11.9,2.1,14.8,5.1Z"/>
          <path class="cls-3" d="M1015.9,447.2c0,2.6-.3,6-.8,8.4h-58.5c3,12.4,12.5,20.6,25,20.6s19.7-5.1,23.3-12.2h6.9v3.7c-4.7,9.3-17.4,15.9-30.4,15.9-19.5,0-33.7-15.4-33.7-36.6s14.2-34.4,34-34.4,34.4,14.4,34.4,34.5ZM955.7,448.7h51.9c.9-16.2-10.6-28.5-26.4-28.5s-25.5,11.4-25.5,26.9v1.6Z"/>
          <path class="cls-3" d="M1090.8,442.1v38.9h-8.1v-37.6c0-13.7-8.5-23.3-21.2-23.3s-21.3,9-21.3,22.1v38.8h-8.1v-65.7h8.1v9.9c4.2-7.8,12.2-12.5,22.1-12.5,17,0,28.5,12,28.5,29.4Z"/>
          <path class="cls-3" d="M1140.3,483.7c-20.4,0-34.8-14.8-34.8-35.5s14.4-35.4,34.8-35.4,34.9,14.8,34.9,35.4-14.5,35.5-34.9,35.5ZM1140.3,420.2c-15.5,0-26.7,11.8-26.7,28s11.1,28.1,26.7,28.1,26.8-11.8,26.8-28.1-11.2-28-26.8-28Z"/>
        </g>
        <path class="cls-3" d="M300.1,284.4v-11.3h19.8c3.9,22.6,25.8,38.1,53.6,38.1s50.1-15.5,50.1-37.8c0-46.9-124.6-9.5-124.6-81.5s28.2-52.2,70.2-52.2,63.5,14.5,68.1,35.3v10.6h-19.4c-1.1-15.5-20.8-25.8-48.3-25.8s-49.4,13.1-49.4,32.1c0,46.9,124.9,12,124.6,80.5,0,34.9-30.7,58.9-72,58.9s-64.6-19.4-72.7-46.9Z"/>
        <path class="cls-3" d="M509.4,177.8c10.6-19.4,30.4-31.1,55.4-31.1s53.6,15.9,62.5,40.2c9.9-24.4,32.8-40.2,62.8-40.2s69.9,31.8,69.9,76.9v107.6h-21.9v-107.6c0-33.5-20.5-56.8-50.1-56.8s-53.3,23.3-53.3,56.8v107.6h-21.9v-107.6c0-34.2-19.8-56.8-49.8-56.8s-52.9,22.6-52.9,56.8v107.6h-21.9v-177.5h21.2v24Z"/>
        <path class="cls-3" d="M988.3,235.3v88.9h-20.8v-33.9c-14.1,25.4-40.6,40.9-73.4,40.9-55.4,0-93.9-39.2-93.9-96s38.8-95.6,93.9-95.6,94.2,39.9,94.2,95.6ZM822.1,235.3c0,44.1,30,75.9,72,75.9s72.3-31.8,72.3-75.9-30.3-75.5-72.3-75.5-72,31.8-72,75.5Z"/>
        <path class="cls-3" d="M1211,232.9c0,7.1-.7,16.2-2.1,22.6h-158.1c8.1,33.5,33.9,55.8,67.4,55.8s53.3-13.8,62.8-32.8h18.7v9.9c-12.7,25.1-46.9,43.1-82.2,43.1-52.6,0-91-41.6-91-98.8s38.5-92.8,91.8-92.8,92.8,38.8,92.8,93.2ZM1048.3,236.8h140.1c2.5-43.8-28.6-76.9-71.3-76.9s-68.8,30.7-68.8,72.7v4.2Z"/>
        <path class="cls-3" d="M1254.7,72.7h21.9v258.7h-21.9V72.7Z"/>
        <g>
          <path class="cls-1" d="M142,83.2h23.6v248.1h-23.6V83.2Z"/>
          <path class="cls-1" d="M25,193.9l84.5-77.3h7v15.2l-80.7,73.4,80.7,73.8v15.2h-7L25,216.8v-22.9Z"/>
          <path class="cls-1" d="M282.6,216.8l-84.5,77.3h-7v-15.2l80.5-73.8-80.5-73.4v-15.2h7l84.5,77.3v22.9Z"/>
        </g>
      </g>
      <g>
        <path class="cls-7" d="M119.1,776.2h74.1v777.1h-74.1v-777.1Z"/>
        <path class="cls-7" d="M-247.4,1122.8L17.2,880.7h22.1v47.5l-252.9,229.9,252.9,231v47.5h-22.1l-264.6-242.1v-71.9Z"/>
        <path class="cls-7" d="M559.7,1194.6l-264.6,242.1h-22.1v-47.5l252.1-231-252.1-229.9v-47.5h22.1l264.6,242.1v71.9Z"/>
      </g>
    </g>
  </g>
</svg>