<?xml version="1.0" encoding="UTF-8"?>
<svg id="Capa_2" xmlns="http://www.w3.org/2000/svg" viewBox="0 0 1909.34 627.01">
  <defs>
    <style>
      .cls-1 {
        fill: #69b9f9;
      }

      .cls-2 {
        fill: #fff;
      }
    </style>
  </defs>
  <g id="Capa_1-2" data-name="Capa_1">
    <g>
      <g>
        <path class="cls-2" d="M225.48,482.9c24.72,0,42.66,14.95,42.66,35.88,0,14.35-9.97,26.31-23.92,29.7,16.34,3.59,27.91,17.74,27.91,34.68,0,23.12-20.13,39.86-47.44,39.86h-69.96v-140.12h70.76ZM168.07,542.5h56.01c17.94,0,30.7-9.77,30.7-23.72s-12.76-23.92-30.7-23.92h-56.01v47.64ZM168.07,554.66v56.41h55.01c20.73,0,35.68-11.96,35.68-28.5s-14.95-27.91-35.68-27.91h-55.01Z"/>
        <path class="cls-2" d="M298.22,476.92h12.36v146.1h-12.36v-146.1Z"/>
        <path class="cls-2" d="M441.34,572.8v50.23h-11.76v-19.14c-7.97,14.35-22.92,23.12-41.46,23.12-31.29,0-53.02-22.12-53.02-54.22s21.93-54.02,53.02-54.02,53.22,22.52,53.22,54.02ZM347.46,572.8c0,24.92,16.94,42.85,40.66,42.85s40.86-17.94,40.86-42.85-17.14-42.65-40.86-42.65-40.66,17.94-40.66,42.65Z"/>
        <path class="cls-2" d="M558.33,563.63v59.4h-12.36v-57.41c0-20.93-12.96-35.48-32.29-35.48s-32.49,13.75-32.49,33.68v59.2h-12.36v-100.26h12.36v15.15c6.38-11.96,18.54-19.14,33.69-19.14,25.91,0,43.45,18.34,43.45,44.85Z"/>
        <path class="cls-2" d="M686.69,476.92v96.87c0,30.89-21.93,53.22-52.62,53.22s-53.22-22.72-53.22-54.22,22.12-54.02,53.02-54.02c17.94,0,32.49,8.77,40.46,22.52v-64.38h12.36ZM633.87,615.65c23.72,0,40.66-17.94,40.86-42.85,0-24.72-17.14-42.65-40.86-42.65s-40.86,17.94-40.66,42.65c0,24.92,17.14,42.85,40.66,42.85Z"/>
        <path class="cls-2" d="M762.43,627.01c-31.09,0-53.02-22.52-53.02-54.22s21.93-54.02,53.02-54.02,53.22,22.52,53.22,54.02-22.12,54.22-53.22,54.22ZM762.43,530.14c-23.72,0-40.66,17.94-40.66,42.65s16.94,42.85,40.66,42.85,40.86-17.94,40.86-42.85-17.14-42.65-40.86-42.65ZM756.85,504.43l23.92-27.51h8.57v5.18l-24.92,27.31h-7.57v-4.98Z"/>
        <path class="cls-2" d="M929.86,563.63v59.4h-12.36v-57.41c0-20.93-12.96-35.48-32.29-35.48s-32.49,13.75-32.49,33.68v59.2h-12.36v-100.26h12.36v15.15c6.38-11.96,18.54-19.14,33.69-19.14,25.91,0,43.45,18.34,43.45,44.85Z"/>
        <path class="cls-2" d="M1037.68,482.9l60.2,122.38,60.2-122.38h17.94v140.12h-13.15v-120.99l-59.4,120.99h-10.96l-59.4-120.59v120.59h-12.96v-140.12h17.54Z"/>
        <path class="cls-2" d="M1255.53,627.01c-31.1,0-53.02-22.52-53.02-54.22s21.93-54.02,53.02-54.02,53.22,22.52,53.22,54.02-22.13,54.22-53.22,54.22ZM1255.53,530.14c-23.72,0-40.66,17.94-40.66,42.65s16.94,42.85,40.66,42.85,40.86-17.94,40.86-42.85-17.14-42.65-40.86-42.65Z"/>
        <path class="cls-2" d="M1396.25,526.75v10.76h-6.78c-2.79-4.38-10.16-7.37-17.54-7.37-15.75,0-26.11,14.75-26.11,36.08v56.81h-12.36v-100.26h11.96v15.35c5.58-11.96,15.55-19.14,28.3-19.14,8.37,0,18.14,3.19,22.52,7.77Z"/>
        <path class="cls-2" d="M1511.66,571.4c0,3.99-.4,9.17-1.2,12.76h-89.3c4.59,18.94,19.14,31.49,38.07,31.49,15.15,0,30.1-7.77,35.48-18.54h10.57v5.58c-7.18,14.15-26.51,24.32-46.44,24.32-29.7,0-51.43-23.52-51.43-55.81,0-30.5,21.73-52.42,51.83-52.42s52.42,21.93,52.42,52.62ZM1419.77,573.6h79.13c1.39-24.72-16.15-43.45-40.26-43.45-22.72,0-38.87,17.34-38.87,41.06v2.39Z"/>
        <path class="cls-2" d="M1625.86,563.63v59.4h-12.36v-57.41c0-20.93-12.96-35.48-32.29-35.48s-32.49,13.75-32.49,33.68v59.2h-12.36v-100.26h12.36v15.15c6.38-11.96,18.54-19.14,33.68-19.14,25.91,0,43.45,18.34,43.45,44.85Z"/>
        <path class="cls-2" d="M1701.4,627.01c-31.1,0-53.02-22.52-53.02-54.22s21.93-54.02,53.02-54.02,53.22,22.52,53.22,54.02-22.12,54.22-53.22,54.22ZM1701.4,530.14c-23.72,0-40.66,17.94-40.66,42.65s16.94,42.85,40.66,42.85,40.86-17.94,40.86-42.85-17.14-42.65-40.86-42.65Z"/>
      </g>
      <path class="cls-2" d="M419.72,323.01v-17.23h30.15c5.92,34.45,39.3,58.14,81.83,58.14s76.45-23.69,76.45-57.6c0-71.6-190.04-14.53-190.04-124.36,0-46.84,43.07-79.68,107.13-79.68,53.84,0,96.9,22.07,103.9,53.84v16.15h-29.61c-1.61-23.69-31.76-39.3-73.75-39.3-45.76,0-75.37,19.92-75.37,48.99,0,71.6,190.58,18.3,190.04,122.74,0,53.3-46.84,89.9-109.82,89.9-53.3,0-98.52-29.61-110.9-71.6Z"/>
      <path class="cls-2" d="M738.96,160.43c16.15-29.61,46.3-47.37,84.52-47.37,45.76,0,81.83,24.23,95.29,61.37,15.07-37.15,50.07-61.37,95.83-61.37,62.99,0,106.59,48.45,106.59,117.36v164.2h-33.38v-164.2c0-51.14-31.22-86.67-76.45-86.67-47.91,0-81.29,35.53-81.29,86.67v164.2h-33.38v-164.2c0-52.22-30.15-86.67-75.91-86.67-48.45,0-80.75,34.45-80.75,86.67v164.2h-33.38V123.82h32.3v36.61Z"/>
      <path class="cls-2" d="M1469.51,248.18v135.67h-31.76v-51.68c-21.54,38.76-61.91,62.45-111.98,62.45-84.52,0-143.2-59.76-143.2-146.43s59.22-145.89,143.2-145.89,143.74,60.83,143.74,145.89ZM1215.94,248.18c0,67.29,45.76,115.75,109.82,115.75s110.36-48.45,110.36-115.75-46.3-115.21-110.36-115.21-109.82,48.45-109.82,115.21Z"/>
      <path class="cls-2" d="M1809.21,244.41c0,10.77-1.08,24.76-3.23,34.45h-241.18c12.38,51.14,51.68,85.06,102.83,85.06,40.92,0,81.29-21,95.83-50.07h28.53v15.07c-19.38,38.22-71.6,65.68-125.44,65.68-80.21,0-138.89-63.53-138.89-150.74,0-82.37,58.68-141.59,139.97-141.59s141.59,59.22,141.59,142.13ZM1561.02,250.34h213.73c3.77-66.76-43.61-117.36-108.75-117.36-61.37,0-104.98,46.84-104.98,110.9v6.46Z"/>
      <path class="cls-2" d="M1875.96,0h33.38v394.61h-33.38V0Z"/>
      <g>
        <path class="cls-1" d="M178.49,16.15h36.07v378.46h-36.07V16.15Z"/>
        <path class="cls-1" d="M0,184.93l128.87-117.9h10.74v23.15L16.47,202.15l123.15,112.52v23.15h-10.74L0,219.92v-34.99Z"/>
        <path class="cls-1" d="M393.06,219.92l-128.87,117.9h-10.74v-23.15l122.79-112.52-122.79-111.98v-23.15h10.74l128.87,117.9v34.99Z"/>
      </g>
    </g>
  </g>
</svg>